<?xml version="1.0" encoding="UTF-8" standalone="no"?>
<svg
   xmlns:dc="http://purl.org/dc/elements/1.1/"
   xmlns:cc="http://creativecommons.org/ns#"
   xmlns:rdf="http://www.w3.org/1999/02/22-rdf-syntax-ns#"
   xmlns:svg="http://www.w3.org/2000/svg"
   xmlns="http://www.w3.org/2000/svg"
   xmlns:xlink="http://www.w3.org/1999/xlink"
   xmlns:sodipodi="http://sodipodi.sourceforge.net/DTD/sodipodi-0.dtd"
   xmlns:inkscape="http://www.inkscape.org/namespaces/inkscape"
   width="159px"
   height="39px"
   viewBox="0 0 159 39"
   version="1.1"
   id="svg3835"
   sodipodi:docname="enzyme_logo.svg"
   inkscape:version="0.92.2 2405546, 2018-03-11">
  <metadata
     id="metadata3839">
    <rdf:RDF>
      <cc:Work
         rdf:about="">
        <dc:format>image/svg+xml</dc:format>
        <dc:type
           rdf:resource="http://purl.org/dc/dcmitype/StillImage" />
        <dc:title>logo_enzyme_white_cmyk@3x</dc:title>
      </cc:Work>
    </rdf:RDF>
  </metadata>
  <sodipodi:namedview
     pagecolor="#ffffff"
     bordercolor="#666666"
     borderopacity="1"
     objecttolerance="10"
     gridtolerance="10"
     guidetolerance="10"
     inkscape:pageopacity="0"
     inkscape:pageshadow="2"
     inkscape:window-width="976"
     inkscape:window-height="1020"
     id="namedview3837"
     showgrid="false"
     inkscape:pagecheckerboard="true"
     inkscape:zoom="5.3773585"
     inkscape:cx="101.84678"
     inkscape:cy="12.228197"
     inkscape:window-x="12"
     inkscape:window-y="44"
     inkscape:window-maximized="1"
     inkscape:current-layer="svg3835" />
  <!-- Generator: Sketch 3.7.2 (28276) - http://www.bohemiancoding.com/sketch -->
  <title
     id="title3819">logo_enzyme_white_cmyk@3x</title>
  <desc
     id="desc3821">Created with Sketch.</desc>
  <defs
     id="defs3824">
    <polygon
       id="path-1"
       points="0.0327835052 38.9675 158.684186 38.9675 158.684186 0 0.0327835052 0" />
    <polygon
       points="0.0327835052 38.9675 158.684186 38.9675 158.684186 0 0.0327835052 0"
       id="path-1-3" />
  </defs>
  <g
     id="Page-1"
     stroke="none"
     stroke-width="1"
     fill="none"
     fill-rule="evenodd">
    <g
       id="Enzyme_Marketing-Clean-"
       transform="translate(-112.000000, -16.000000)">
      <g
         id="logo_enzyme_white_cmyk"
         transform="translate(112.000000, 16.000000)">
        <mask
           id="mask-2"
           fill="white">
          <use
             xlink:href="#path-1"
             id="use3826" />
        </mask>
        <g
           id="Clip-2" />
        <path
           d="M39.0123711,24.3744583 C40.7111031,24.3744583 42.2076701,23.5207917 43.0911856,22.2240417 C43.6211856,21.44675 43.9298969,20.5085833 43.9298969,19.4994583 C43.9298969,18.4887083 43.6195464,17.5489167 43.0879072,16.77 C42.2043918,15.474875 40.7094639,14.6244583 39.0123711,14.6244583 L21.9649485,14.6244583 C19.2471959,14.6244583 17.0474227,16.8046667 17.0474227,19.4994583 C17.0474227,22.191 19.2471959,24.3744583 21.9649485,24.3744583 L39.0123711,24.3744583 L39.0123711,24.3744583 Z M36.9426392,29.2494583 L21.9649485,29.2494583 C16.5338144,29.2494583 12.1304433,24.883625 12.1304433,19.4994583 C12.1304433,18.3538333 12.3298763,17.2537083 12.6970515,16.232125 L12.7079794,16.235375 C12.7495052,16.1113333 12.7719072,15.9797083 12.7719072,15.8432083 C12.7719072,15.1704583 12.2211443,14.6244583 11.5425258,14.6244583 L2.79807216,14.6244583 C2.33691753,14.6244583 1.93368041,14.876875 1.72331959,15.2479167 L0.841989691,16.77 C0.310350515,17.5489167 0,18.4887083 0,19.4994583 C0,20.5085833 0.308164948,21.44675 0.83871134,22.2240417 L9.01874227,36.257 L9.02202062,36.257 C9.43563918,37.1047083 10.1016907,37.8408333 10.9841134,38.3456667 C11.8659897,38.8505 12.8391134,39.0563333 13.782732,38.987 L13.782732,38.9880833 L30.1482577,38.9880833 L30.1482577,38.987 C31.0902371,39.0563333 32.0639072,38.8505 32.9457835,38.3456667 C33.8276598,37.8408333 34.4937113,37.1047083 34.9084227,36.257 L34.9111546,36.257 L37.9430825,31.048875 C38.0458041,30.8728333 38.1162887,30.6745833 38.1162887,30.4568333 C38.1162887,29.8030417 37.5944845,29.2797917 36.9426392,29.2494583 L36.9426392,29.2494583 Z M36.9426392,9.75054167 L6.98671134,9.75054167 C6.33595876,9.71966667 5.81415464,9.195875 5.81415464,8.542625 C5.81415464,8.32541667 5.88463918,8.126625 5.98681443,7.951125 L9.01874227,2.74245833 L9.02202062,2.74245833 C9.43563918,1.89529167 10.1016907,1.15916667 10.9841134,0.654333333 C11.8659897,0.1495 12.8391134,-0.0563333333 13.782732,0.013 L13.782732,0.011375 L30.1482577,0.011375 L30.1482577,0.013 C31.0902371,-0.0563333333 32.0639072,0.1495 32.9457835,0.654333333 C33.8276598,1.15916667 34.4937113,1.89529167 34.9084227,2.74245833 L34.9111546,2.74245833 L37.9430825,7.951125 C38.0458041,8.126625 38.1162887,8.32541667 38.1162887,8.542625 C38.1162887,9.195875 37.5944845,9.71966667 36.9426392,9.75054167 L36.9426392,9.75054167 Z"
           id="Fill-1"
           fill="#FFFFFF"
           mask="url(#mask-2)" />
        <path
           d="M114.504588,15.5263333 L110.720825,24.2552917 L106.936515,15.5263333 L103.152206,15.5263333 L108.837959,28.598375 L105.843732,35.5057083 L109.599082,35.5057083 L118.288897,15.5263333 L114.504588,15.5263333 L114.504588,15.5263333 Z M155.342454,20.834125 C155.118433,19.0558333 153.744804,18.165875 151.754299,18.165875 C149.877443,18.165875 148.41967,19.0558333 147.886938,20.834125 L155.342454,20.834125 L155.342454,20.834125 Z M147.83066,23.6405 C148.05468,25.335375 149.512454,26.5579167 151.951,26.5579167 C153.212072,26.5579167 154.83868,26.0855833 155.650619,25.2795833 L157.837278,27.4197083 C156.351639,28.8925 154.025649,29.6427083 151.895268,29.6427083 C147.130186,29.6427083 144.29933,26.697125 144.29933,22.334 C144.29933,18.165875 147.158052,15.1650417 151.642289,15.1650417 C156.239629,15.1650417 159.154082,17.9995833 158.621897,23.6405 L147.83066,23.6405 L147.83066,23.6405 Z M129.669144,29.225625 L129.669144,21.7787917 C129.669144,19.9723333 128.716237,18.33325 126.838289,18.33325 C124.959794,18.33325 123.894876,19.9723333 123.894876,21.7787917 L123.894876,29.225625 L120.474464,29.225625 L120.474464,15.5263333 L123.894876,15.5263333 L123.894876,17.0549167 C124.651629,15.637375 126.221412,15.1650417 127.538216,15.1650417 C129.22001,15.1650417 130.846619,15.8318333 131.630691,17.7217083 C132.864443,15.7484167 134.462093,15.2208333 136.255897,15.2208333 C140.207402,15.2208333 142.113763,17.5830417 142.113763,21.7224583 L142.113763,29.225625 L138.694443,29.225625 L138.694443,21.7224583 C138.694443,19.9170833 137.937691,18.3885 136.087062,18.3885 C134.238072,18.3885 133.088464,19.9723333 133.088464,21.7787917 L133.088464,29.225625 L129.669144,29.225625 L129.669144,29.225625 Z M100.911454,15.5263333 L100.911454,17.1383333 L94.5476289,25.891125 L100.966639,25.891125 L100.966639,29.225625 L89.3345052,29.225625 L89.3345052,27.808625 L95.9496701,18.6105833 L89.8393711,18.6105833 L89.8393711,15.5263333 L100.911454,15.5263333 L100.911454,15.5263333 Z M76.2702784,17.1594583 C77.6586598,15.7213333 78.9798351,15.2208333 80.6987835,15.2208333 C83.9509072,15.2208333 86.5571959,17.63775 86.5571959,21.945625 L86.5571959,29.225625 L83.1373299,29.225625 L83.1373299,21.97325 C83.1373299,19.8894583 81.9598557,18.3050833 79.8021546,18.3050833 C77.6712268,18.3050833 76.2702784,20.0552083 76.2702784,22.1395417 L76.2702784,29.225625 L72.8788247,29.225625 L72.8788247,15.5263333 L76.2702784,15.5263333 L76.2702784,17.1594583 L76.2702784,17.1594583 Z M69.6004742,29.225625 L54.9123711,29.225625 L54.9123711,9.774375 L69.6004742,9.774375 L69.6004742,13.3309583 L58.5841237,13.3309583 L58.5841237,17.805125 L69.2076186,17.805125 L69.2076186,21.2230417 L58.5841237,21.2230417 L58.5841237,25.61325 L69.6004742,25.61325 L69.6004742,29.225625 L69.6004742,29.225625 Z"
           id="Fill-3"
           fill="#FFFFFF"
           mask="url(#mask-2)" />
      </g>
    </g>
  </g>
  <g
     id="Page-1-6"
     style="fill:none;fill-rule:evenodd;stroke:none;stroke-width:1"
     transform="translate(-0.49305995,-34.429824)">
    <g
       transform="translate(-112,-16)"
       id="Enzyme_Marketing-Clean--7">
      <g
         transform="translate(112,16)"
         id="logo_enzyme_white_cmyk-5">
        <mask
           fill="white"
           id="mask-2-3">
          <use
             id="use3943"
             xlink:href="#path-1-3"
             x="0"
             y="0"
             width="100%"
             height="100%" />
        </mask>
        <g
           id="Clip-2-5" />
        <path
           mask="url(#mask-2-3)"
           id="Fill-1-6"
           d="m 39.012371,24.374458 c 1.698732,0 3.195299,-0.853666 4.078815,-2.150416 0.53,-0.777292 0.838711,-1.715459 0.838711,-2.724584 0,-1.01075 -0.310351,-1.950541 -0.84199,-2.729458 -0.883515,-1.295125 -2.378443,-2.145542 -4.075536,-2.145542 H 21.964948 c -2.717752,0 -4.917525,2.180209 -4.917525,4.875 0,2.691542 2.199773,4.875 4.917525,4.875 z m -2.069732,4.875 H 21.964948 c -5.431134,0 -9.834505,-4.365833 -9.834505,-9.75 0,-1.145625 0.199433,-2.24575 0.566609,-3.267333 l 0.01093,0.0033 c 0.04153,-0.124042 0.06393,-0.255667 0.06393,-0.392167 0,-0.67275 -0.550763,-1.21875 -1.229381,-1.21875 H 2.7980722 c -0.4611547,0 -0.8643918,0.252417 -1.0747526,0.623459 L 0.84198969,16.77 C 0.31035052,17.548917 0,18.488708 0,19.499458 0,20.508583 0.30816495,21.44675 0.83871134,22.224042 L 9.0187423,36.257 h 0.00328 c 0.4136186,0.847708 1.0796707,1.583833 1.9620927,2.088667 0.881877,0.504833 1.855,0.710666 2.798619,0.641333 v 0.0011 H 30.148258 V 38.987 c 0.941979,0.06933 1.915649,-0.1365 2.797525,-0.641333 0.881877,-0.504834 1.547928,-1.240959 1.96264,-2.088667 h 0.0027 l 3.031928,-5.208125 c 0.102721,-0.176042 0.173206,-0.374292 0.173206,-0.592042 0,-0.653791 -0.521805,-1.177041 -1.17365,-1.207375 z m 0,-19.4989163 H 6.9867113 C 6.3359588,9.7196667 5.8141546,9.195875 5.8141546,8.542625 c 0,-0.2172083 0.070485,-0.416 0.1726598,-0.5915 L 9.0187423,2.7424583 h 0.00328 C 9.4356392,1.8952917 10.101691,1.1591667 10.984113,0.65433333 11.86599,0.1495 12.839113,-0.05633333 13.782732,0.013 V 0.011375 H 30.148258 V 0.013 c 0.941979,-0.06933333 1.915649,0.1365 2.797525,0.64133333 0.881877,0.50483337 1.547928,1.24095837 1.96264,2.08812497 h 0.0027 l 3.031928,5.2086667 c 0.102721,0.1755 0.173206,0.3742917 0.173206,0.5915 0,0.65325 -0.521805,1.1770417 -1.17365,1.2079167 z"
           inkscape:connector-curvature="0"
           style="fill:#ffffff" />
        <path
           mask="url(#mask-2-3)"
           id="Fill-3-2"
           d="m 114.50459,15.526333 -3.78376,8.728959 -3.78431,-8.728959 h -3.78431 l 5.68575,13.072042 -2.99423,6.907333 h 3.75535 l 8.68982,-19.979375 z m 40.83786,5.307792 c -0.22402,-1.778292 -1.59765,-2.66825 -3.58815,-2.66825 -1.87686,0 -3.33463,0.889958 -3.86736,2.66825 z m -7.51179,2.806375 c 0.22402,1.694875 1.68179,2.917417 4.12034,2.917417 1.26107,0 2.88768,-0.472334 3.69962,-1.278334 l 2.18666,2.140125 c -1.48564,1.472792 -3.81163,2.223 -5.94201,2.223 -4.76508,0 -7.59594,-2.945583 -7.59594,-7.308708 0,-4.168125 2.85872,-7.168958 7.34296,-7.168958 4.59734,0 7.51179,2.834541 6.97961,8.475458 z m -18.16152,5.585125 v -7.446833 c 0,-1.806459 -0.9529,-3.445542 -2.83085,-3.445542 -1.8785,0 -2.94341,1.639083 -2.94341,3.445542 v 7.446833 h -3.42042 V 15.526333 h 3.42042 v 1.528584 c 0.75675,-1.417542 2.32653,-1.889875 3.64334,-1.889875 1.68179,0 3.3084,0.666791 4.09247,2.556666 1.23375,-1.973291 2.8314,-2.500875 4.62521,-2.500875 3.9515,0 5.85786,2.362209 5.85786,6.501625 v 7.503167 h -3.41932 v -7.503167 c 0,-1.805375 -0.75675,-3.333958 -2.60738,-3.333958 -1.84899,0 -2.9986,1.583833 -2.9986,3.390292 v 7.446833 z M 100.91145,15.526333 v 1.612 l -6.363821,8.752792 h 6.419011 v 3.3345 H 89.334505 v -1.417 l 6.615165,-9.198042 h -6.110299 v -3.08425 z m -24.641172,1.633125 c 1.388382,-1.438125 2.709557,-1.938625 4.428506,-1.938625 3.252123,0 5.858412,2.416917 5.858412,6.724792 v 7.28 H 83.13733 V 21.97325 c 0,-2.083792 -1.177474,-3.668167 -3.335175,-3.668167 -2.130928,0 -3.531877,1.750125 -3.531877,3.834459 v 7.086083 H 72.878825 V 15.526333 h 3.391453 z M 69.600474,29.225625 H 54.912371 V 9.774375 h 14.688103 v 3.556583 h -11.01635 v 4.474167 h 10.623495 v 3.417917 H 58.584124 v 4.390208 h 11.01635 z"
           inkscape:connector-curvature="0"
           style="fill:#ffffff" />
      </g>
    </g>
  </g>
</svg>
