<?xml version="1.0" encoding="UTF-8" standalone="no"?>
<!-- Created with Inkscape (http://www.inkscape.org/) -->

<svg
   xmlns:dc="http://purl.org/dc/elements/1.1/"
   xmlns:cc="http://creativecommons.org/ns#"
   xmlns:rdf="http://www.w3.org/1999/02/22-rdf-syntax-ns#"
   xmlns:svg="http://www.w3.org/2000/svg"
   xmlns="http://www.w3.org/2000/svg"
   xmlns:xlink="http://www.w3.org/1999/xlink"
   xmlns:sodipodi="http://sodipodi.sourceforge.net/DTD/sodipodi-0.dtd"
   xmlns:inkscape="http://www.inkscape.org/namespaces/inkscape"
   width="41.985237mm"
   height="10.325655mm"
   viewBox="0 0 41.985237 10.325655"
   version="1.1"
   id="svg5100"
   inkscape:version="0.92.2 2405546, 2018-03-11"
   sodipodi:docname="enzyme_logo_blue.svg">
  <defs
     id="defs5094">
    <polygon
       points="158.68419,38.9675 158.68419,0 0.032783505,0 0.032783505,38.9675 "
       id="path-1" />
    <polygon
       id="path-1-3"
       points="158.68419,38.9675 158.68419,0 0.032783505,0 0.032783505,38.9675 " />
  </defs>
  <sodipodi:namedview
     id="base"
     pagecolor="#ffffff"
     bordercolor="#666666"
     borderopacity="1.0"
     inkscape:pageopacity="0.0"
     inkscape:pageshadow="2"
     inkscape:zoom="1"
     inkscape:cx="-69.61496"
     inkscape:cy="33.732287"
     inkscape:document-units="mm"
     inkscape:current-layer="layer1"
     showgrid="false"
     inkscape:measure-start="0,0"
     inkscape:measure-end="0,0"
     fit-margin-top="0"
     fit-margin-left="0"
     fit-margin-right="0"
     fit-margin-bottom="0"
     inkscape:pagecheckerboard="true"
     inkscape:window-width="1892"
     inkscape:window-height="1020"
     inkscape:window-x="12"
     inkscape:window-y="44"
     inkscape:window-maximized="1" />
  <metadata
     id="metadata5097">
    <rdf:RDF>
      <cc:Work
         rdf:about="">
        <dc:format>image/svg+xml</dc:format>
        <dc:type
           rdf:resource="http://purl.org/dc/dcmitype/StillImage" />
        <dc:title></dc:title>
      </cc:Work>
    </rdf:RDF>
  </metadata>
  <g
     inkscape:label="Layer 1"
     inkscape:groupmode="layer"
     id="layer1"
     transform="translate(-78.858325,-148.22184)">
    <g
       id="g5187"
       transform="matrix(0.26458333,0,0,0.26458333,78.858325,148.22873)">
      <g
         id="Page-1"
         style="fill:none;fill-rule:evenodd;stroke:none;stroke-width:1">
        <g
           transform="translate(-112,-16)"
           id="Enzyme_Marketing-Clean-">
          <g
             transform="translate(112,16)"
             id="logo_enzyme_white_cmyk">
            <mask
               fill="white"
               id="mask-2">
              <use
                 id="use3826"
                 xlink:href="#path-1"
                 x="0"
                 y="0"
                 width="100%"
                 height="100%" />
            </mask>
            <g
               id="Clip-2" />
            <path
               style="fill:#1996da;fill-opacity:1"
               d="m 39.012371,24.374458 c 1.698732,0 3.195299,-0.853666 4.078815,-2.150416 0.53,-0.777292 0.838711,-1.715459 0.838711,-2.724584 0,-1.01075 -0.310351,-1.950541 -0.84199,-2.729458 -0.883515,-1.295125 -2.378443,-2.145542 -4.075536,-2.145542 H 21.964948 c -2.717752,0 -4.917525,2.180209 -4.917525,4.875 0,2.691542 2.199773,4.875 4.917525,4.875 z"
               id="path9689"
               inkscape:connector-curvature="0" />
            <path
               style="fill:#1996da;fill-opacity:1"
               d="M 36.942639,29.249458 H 21.964948 c -5.431134,0 -9.834505,-4.365833 -9.834505,-9.75 0,-1.145625 0.199433,-2.24575 0.566609,-3.267333 l 0.01093,0.0033 c 0.04153,-0.124042 0.06393,-0.255667 0.06393,-0.392167 0,-0.67275 -0.550763,-1.21875 -1.229381,-1.21875 H 2.7980722 c -0.4611547,0 -0.8643918,0.252417 -1.0747526,0.623459 L 0.84198969,16.77 C 0.31035052,17.548917 0,18.488708 0,19.499458 0,20.508583 0.30816495,21.44675 0.83871134,22.224042 L 9.0187423,36.257 h 0.00328 c 0.4136186,0.847708 1.0796707,1.583833 1.9620927,2.088667 0.881877,0.504833 1.855,0.710666 2.798619,0.641333 v 0.0011 H 30.148258 V 38.987 c 0.941979,0.06933 1.915649,-0.1365 2.797525,-0.641333 0.881877,-0.504834 1.547928,-1.240959 1.96264,-2.088667 h 0.0027 l 3.031928,-5.208125 c 0.102721,-0.176042 0.173206,-0.374292 0.173206,-0.592042 0,-0.653791 -0.521805,-1.177041 -1.17365,-1.207375 z"
               id="path9687"
               inkscape:connector-curvature="0" />
            <path
               style="fill:#1996da;fill-opacity:1"
               d="M 36.942639,9.7505417 H 6.9867113 C 6.3359588,9.7196667 5.8141546,9.195875 5.8141546,8.542625 c 0,-0.2172083 0.070485,-0.416 0.1726598,-0.5915 L 9.0187423,2.7424583 h 0.00328 C 9.4356392,1.8952917 10.101691,1.1591667 10.984113,0.65433333 11.86599,0.1495 12.839113,-0.05633333 13.782732,0.013 l 8.653752,-0.03547917 C 31.090237,-0.05633333 32.063907,0.1495 32.945783,0.65433333 33.82766,1.1591667 34.493711,1.8952917 34.908423,2.7424583 h 0.0027 l 3.031928,5.2086667 c 0.102721,0.1755 0.173206,0.3742917 0.173206,0.5915 0,0.65325 -0.521805,1.1770417 -1.17365,1.2079167 z"
               id="Fill-1"
               inkscape:connector-curvature="0"
               sodipodi:nodetypes="ccsccccccscccscc" />
            <path
               style="fill:#1996da;fill-opacity:1"
               d="m 114.50459,15.526333 -3.78376,8.728959 -3.78431,-8.728959 h -3.78431 l 5.68575,13.072042 -2.99423,6.907333 h 3.75535 l 8.68982,-19.979375 z"
               id="path9838"
               inkscape:connector-curvature="0" />
            <path
               style="fill:#1996da;fill-opacity:1"
               d="m 155.34245,20.834125 c -0.22402,-1.778292 -1.59765,-2.66825 -3.58815,-2.66825 -1.87686,0 -3.33463,0.889958 -3.86736,2.66825 z"
               id="path9836"
               inkscape:connector-curvature="0" />
            <path
               style="fill:#1996da;fill-opacity:1"
               d="m 147.83066,23.6405 c 0.22402,1.694875 1.68179,2.917417 4.12034,2.917417 1.26107,0 2.88768,-0.472334 3.69962,-1.278334 l 2.18666,2.140125 c -1.48564,1.472792 -3.81163,2.223 -5.94201,2.223 -4.76508,0 -7.59594,-2.945583 -7.59594,-7.308708 0,-4.168125 2.85872,-7.168958 7.34296,-7.168958 4.59734,0 7.51179,2.834541 6.97961,8.475458 z"
               id="path9834"
               inkscape:connector-curvature="0" />
            <path
               style="fill:#1996da;fill-opacity:1"
               d="m 129.66914,29.225625 v -7.446833 c 0,-1.806459 -0.9529,-3.445542 -2.83085,-3.445542 -1.8785,0 -2.94341,1.639083 -2.94341,3.445542 v 7.446833 h -3.42042 V 15.526333 h 3.42042 v 1.528584 c 0.75675,-1.417542 2.32653,-1.889875 3.64334,-1.889875 1.68179,0 3.3084,0.666791 4.09247,2.556666 1.23375,-1.973291 2.8314,-2.500875 4.62521,-2.500875 3.9515,0 5.85786,2.362209 5.85786,6.501625 v 7.503167 h -3.41932 v -7.503167 c 0,-1.805375 -0.75675,-3.333958 -2.60738,-3.333958 -1.84899,0 -2.9986,1.583833 -2.9986,3.390292 v 7.446833 z"
               id="path9832"
               inkscape:connector-curvature="0" />
            <path
               style="fill:#1996da;fill-opacity:1"
               d="m 100.91145,15.526333 v 1.612 l -6.363821,8.752792 h 6.419011 v 3.3345 H 89.334505 v -1.417 l 6.615165,-9.198042 h -6.110299 v -3.08425 z"
               id="path9830"
               inkscape:connector-curvature="0" />
            <path
               style="fill:#1996da;fill-opacity:1"
               d="m 76.270278,17.159458 c 1.388382,-1.438125 2.709557,-1.938625 4.428506,-1.938625 3.252123,0 5.858412,2.416917 5.858412,6.724792 v 7.28 H 83.13733 V 21.97325 c 0,-2.083792 -1.177474,-3.668167 -3.335175,-3.668167 -2.130928,0 -3.531877,1.750125 -3.531877,3.834459 v 7.086083 H 72.878825 V 15.526333 h 3.391453 z"
               id="path9828"
               inkscape:connector-curvature="0" />
            <path
               style="fill:#1996da;fill-opacity:1"
               d="M 69.600474,29.225625 H 54.912371 V 9.774375 h 14.688103 v 3.556583 h -11.01635 v 4.474167 h 10.623495 v 3.417917 H 58.584124 v 4.390208 h 11.01635 z"
               id="Fill-3"
               inkscape:connector-curvature="0" />
          </g>
        </g>
      </g>
      <g
         transform="translate(-0.49305995,-34.429824)"
         style="fill:none;fill-rule:evenodd;stroke:none;stroke-width:1"
         id="Page-1-6">
        <g
           id="Enzyme_Marketing-Clean--7"
           transform="translate(-112,-16)">
          <g
             id="logo_enzyme_white_cmyk-5"
             transform="translate(112,16)">
            <mask
               id="mask-2-3"
               fill="white">
              <use
                 height="100%"
                 width="100%"
                 y="0"
                 x="0"
                 xlink:href="#path-1-3"
                 id="use3943" />
            </mask>
            <g
               id="Clip-2-5" />
          </g>
        </g>
      </g>
    </g>
  </g>
</svg>
